<svg xmlns="http://www.w3.org/2000/svg" version="1.1" xmlns:xlink="http://www.w3.org/1999/xlink" xmlns:svgjs="http://svgjs.com/svgjs" width="1200" height="500" preserveAspectRatio="none" viewBox="0 0 1200 500"><g mask="url(&quot;#SvgjsMask2031&quot;)" fill="none"><rect width="1200" height="500" x="0" y="0" fill="url(#SvgjsLinearGradient2032)"></rect><path d="M-88.24 353.13L-88.24 353.13" stroke="rgba(73, 88, 103, 1)" stroke-width="1.5"></path><path d="M-88.24 353.13L-83.74 538.96" stroke="rgba(73, 88, 103, 1)" stroke-width="1.5"></path><path d="M-88.24 353.13L105.15 352.66" stroke="rgba(73, 88, 103, 1)" stroke-width="1.5"></path><path d="M-88.24 353.13L100.79 499.9" stroke="rgba(73, 88, 103, 1)" stroke-width="1.5"></path><path d="M-88.24 353.13L230.99 411.39" stroke="rgba(73, 88, 103, 1)" stroke-width="1.5"></path><path d="M-88.24 353.13L213.37 509.86" stroke="rgba(73, 88, 103, 1)" stroke-width="1.5"></path><path d="M-83.74 538.96L-83.74 538.96" stroke="rgba(73, 88, 103, 1)" stroke-width="1.5"></path><path d="M-83.74 538.96L-45.44 692.1" stroke="rgba(73, 88, 103, 1)" stroke-width="1.5"></path><path d="M-45.44 692.1L-45.44 692.1" stroke="rgba(73, 88, 103, 1)" stroke-width="1.5"></path><path d="M-45.44 692.1L86.23 666.13" stroke="rgba(73, 88, 103, 1)" stroke-width="1.5"></path><path d="M-45.44 692.1L100.79 499.9" stroke="rgba(73, 88, 103, 1)" stroke-width="1.5"></path><path d="M-45.44 692.1L197.79 672.3" stroke="rgba(73, 88, 103, 1)" stroke-width="1.5"></path><path d="M105.15 352.66L105.15 352.66" stroke="rgba(73, 88, 103, 1)" stroke-width="1.5"></path><path d="M105.15 352.66L230.99 411.39" stroke="rgba(73, 88, 103, 1)" stroke-width="1.5"></path><path d="M105.15 352.66L100.79 499.9" stroke="rgba(73, 88, 103, 1)" stroke-width="1.5"></path><path d="M105.15 352.66L213.37 509.86" stroke="rgba(73, 88, 103, 1)" stroke-width="1.5"></path><path d="M105.15 352.66L-83.74 538.96" stroke="rgba(73, 88, 103, 1)" stroke-width="1.5"></path><path d="M100.79 499.9L100.79 499.9" stroke="rgba(73, 88, 103, 1)" stroke-width="1.5"></path><path d="M100.79 499.9L213.37 509.86" stroke="rgba(73, 88, 103, 1)" stroke-width="1.5"></path><path d="M100.79 499.9L230.99 411.39" stroke="rgba(73, 88, 103, 1)" stroke-width="1.5"></path><path d="M100.79 499.9L86.23 666.13" stroke="rgba(73, 88, 103, 1)" stroke-width="1.5"></path><path d="M100.79 499.9L-83.74 538.96" stroke="rgba(73, 88, 103, 1)" stroke-width="1.5"></path><path d="M86.23 666.13L86.23 666.13" stroke="rgba(73, 88, 103, 1)" stroke-width="1.5"></path><path d="M86.23 666.13L197.79 672.3" stroke="rgba(73, 88, 103, 1)" stroke-width="1.5"></path><path d="M230.99 411.39L230.99 411.39" stroke="rgba(73, 88, 103, 1)" stroke-width="1.5"></path><path d="M230.99 411.39L213.37 509.86" stroke="rgba(73, 88, 103, 1)" stroke-width="1.5"></path><path d="M213.37 509.86L213.37 509.86" stroke="rgba(73, 88, 103, 1)" stroke-width="1.5"></path><path d="M213.37 509.86L197.79 672.3" stroke="rgba(73, 88, 103, 1)" stroke-width="1.5"></path><path d="M213.37 509.86L390.68 536.1" stroke="rgba(73, 88, 103, 1)" stroke-width="1.5"></path><path d="M197.79 672.3L197.79 672.3" stroke="rgba(73, 88, 103, 1)" stroke-width="1.5"></path><path d="M390.68 536.1L390.68 536.1" stroke="rgba(73, 88, 103, 1)" stroke-width="1.5"></path><path d="M390.68 536.1L540.86 497.42" stroke="rgba(73, 88, 103, 1)" stroke-width="1.5"></path><path d="M390.68 536.1L396.29 703.35" stroke="rgba(73, 88, 103, 1)" stroke-width="1.5"></path><path d="M396.29 703.35L396.29 703.35" stroke="rgba(73, 88, 103, 1)" stroke-width="1.5"></path><path d="M396.29 703.35L505.86 661.58" stroke="rgba(73, 88, 103, 1)" stroke-width="1.5"></path><path d="M396.29 703.35L197.79 672.3" stroke="rgba(73, 88, 103, 1)" stroke-width="1.5"></path><path d="M396.29 703.35L540.86 497.42" stroke="rgba(73, 88, 103, 1)" stroke-width="1.5"></path><path d="M396.29 703.35L213.37 509.86" stroke="rgba(73, 88, 103, 1)" stroke-width="1.5"></path><path d="M561.86 213.03L561.86 213.03" stroke="rgba(73, 88, 103, 1)" stroke-width="1.5"></path><path d="M561.86 213.03L511.91 356.86" stroke="rgba(73, 88, 103, 1)" stroke-width="1.5"></path><path d="M561.86 213.03L643.08 377.85" stroke="rgba(73, 88, 103, 1)" stroke-width="1.5"></path><path d="M511.91 356.86L511.91 356.86" stroke="rgba(73, 88, 103, 1)" stroke-width="1.5"></path><path d="M511.91 356.86L643.08 377.85" stroke="rgba(73, 88, 103, 1)" stroke-width="1.5"></path><path d="M511.91 356.86L540.86 497.42" stroke="rgba(73, 88, 103, 1)" stroke-width="1.5"></path><path d="M511.91 356.86L390.68 536.1" stroke="rgba(73, 88, 103, 1)" stroke-width="1.5"></path><path d="M511.91 356.86L654.78 549.57" stroke="rgba(73, 88, 103, 1)" stroke-width="1.5"></path><path d="M540.86 497.42L540.86 497.42" stroke="rgba(73, 88, 103, 1)" stroke-width="1.5"></path><path d="M540.86 497.42L654.78 549.57" stroke="rgba(73, 88, 103, 1)" stroke-width="1.5"></path><path d="M540.86 497.42L643.08 377.85" stroke="rgba(73, 88, 103, 1)" stroke-width="1.5"></path><path d="M540.86 497.42L505.86 661.58" stroke="rgba(73, 88, 103, 1)" stroke-width="1.5"></path><path d="M505.86 661.58L505.86 661.58" stroke="rgba(73, 88, 103, 1)" stroke-width="1.5"></path><path d="M505.86 661.58L390.68 536.1" stroke="rgba(73, 88, 103, 1)" stroke-width="1.5"></path><path d="M505.86 661.58L654.78 549.57" stroke="rgba(73, 88, 103, 1)" stroke-width="1.5"></path><path d="M643.08 377.85L643.08 377.85" stroke="rgba(73, 88, 103, 1)" stroke-width="1.5"></path><path d="M654.78 549.57L654.78 549.57" stroke="rgba(73, 88, 103, 1)" stroke-width="1.5"></path><path d="M654.78 549.57L789.01 490.91" stroke="rgba(73, 88, 103, 1)" stroke-width="1.5"></path><path d="M654.78 549.57L710.86 694.7" stroke="rgba(73, 88, 103, 1)" stroke-width="1.5"></path><path d="M654.78 549.57L643.08 377.85" stroke="rgba(73, 88, 103, 1)" stroke-width="1.5"></path><path d="M710.86 694.7L710.86 694.7" stroke="rgba(73, 88, 103, 1)" stroke-width="1.5"></path><path d="M710.86 694.7L811.9 646.29" stroke="rgba(73, 88, 103, 1)" stroke-width="1.5"></path><path d="M829.87 -104.3L829.87 -104.3" stroke="rgba(73, 88, 103, 1)" stroke-width="1.5"></path><path d="M829.87 -104.3L814.3 107.68" stroke="rgba(73, 88, 103, 1)" stroke-width="1.5"></path><path d="M829.87 -104.3L1012.19 107.1" stroke="rgba(73, 88, 103, 1)" stroke-width="1.5"></path><path d="M814.3 107.68L814.3 107.68" stroke="rgba(73, 88, 103, 1)" stroke-width="1.5"></path><path d="M814.3 107.68L788.96 242.9" stroke="rgba(73, 88, 103, 1)" stroke-width="1.5"></path><path d="M814.3 107.68L981.75 199.83" stroke="rgba(73, 88, 103, 1)" stroke-width="1.5"></path><path d="M788.96 242.9L788.96 242.9" stroke="rgba(73, 88, 103, 1)" stroke-width="1.5"></path><path d="M788.96 242.9L861.17 375.84" stroke="rgba(73, 88, 103, 1)" stroke-width="1.5"></path><path d="M788.96 242.9L981.75 199.83" stroke="rgba(73, 88, 103, 1)" stroke-width="1.5"></path><path d="M861.17 375.84L861.17 375.84" stroke="rgba(73, 88, 103, 1)" stroke-width="1.5"></path><path d="M861.17 375.84L789.01 490.91" stroke="rgba(73, 88, 103, 1)" stroke-width="1.5"></path><path d="M861.17 375.84L1000.7 340.91" stroke="rgba(73, 88, 103, 1)" stroke-width="1.5"></path><path d="M789.01 490.91L789.01 490.91" stroke="rgba(73, 88, 103, 1)" stroke-width="1.5"></path><path d="M811.9 646.29L811.9 646.29" stroke="rgba(73, 88, 103, 1)" stroke-width="1.5"></path><path d="M811.9 646.29L939.32 696.39" stroke="rgba(73, 88, 103, 1)" stroke-width="1.5"></path><path d="M811.9 646.29L789.01 490.91" stroke="rgba(73, 88, 103, 1)" stroke-width="1.5"></path><path d="M1012.19 107.1L1012.19 107.1" stroke="rgba(73, 88, 103, 1)" stroke-width="1.5"></path><path d="M1012.19 107.1L981.75 199.83" stroke="rgba(73, 88, 103, 1)" stroke-width="1.5"></path><path d="M1012.19 107.1L1108.74 48.86" stroke="rgba(73, 88, 103, 1)" stroke-width="1.5"></path><path d="M1012.19 107.1L1125.81 204.91" stroke="rgba(73, 88, 103, 1)" stroke-width="1.5"></path><path d="M1012.19 107.1L814.3 107.68" stroke="rgba(73, 88, 103, 1)" stroke-width="1.5"></path><path d="M1012.19 107.1L1000.7 340.91" stroke="rgba(73, 88, 103, 1)" stroke-width="1.5"></path><path d="M981.75 199.83L981.75 199.83" stroke="rgba(73, 88, 103, 1)" stroke-width="1.5"></path><path d="M981.75 199.83L1000.7 340.91" stroke="rgba(73, 88, 103, 1)" stroke-width="1.5"></path><path d="M981.75 199.83L1125.81 204.91" stroke="rgba(73, 88, 103, 1)" stroke-width="1.5"></path><path d="M1000.7 340.91L1000.7 340.91" stroke="rgba(73, 88, 103, 1)" stroke-width="1.5"></path><path d="M1000.7 340.91L1153.18 354.38" stroke="rgba(73, 88, 103, 1)" stroke-width="1.5"></path><path d="M1000.7 340.91L961.42 492.42" stroke="rgba(73, 88, 103, 1)" stroke-width="1.5"></path><path d="M1000.7 340.91L1125.81 204.91" stroke="rgba(73, 88, 103, 1)" stroke-width="1.5"></path><path d="M1000.7 340.91L1117.32 494.95" stroke="rgba(73, 88, 103, 1)" stroke-width="1.5"></path><path d="M961.42 492.42L961.42 492.42" stroke="rgba(73, 88, 103, 1)" stroke-width="1.5"></path><path d="M961.42 492.42L861.17 375.84" stroke="rgba(73, 88, 103, 1)" stroke-width="1.5"></path><path d="M961.42 492.42L1117.32 494.95" stroke="rgba(73, 88, 103, 1)" stroke-width="1.5"></path><path d="M939.32 696.39L939.32 696.39" stroke="rgba(73, 88, 103, 1)" stroke-width="1.5"></path><path d="M939.32 696.39L961.42 492.42" stroke="rgba(73, 88, 103, 1)" stroke-width="1.5"></path><path d="M939.32 696.39L1147.16 709.18" stroke="rgba(73, 88, 103, 1)" stroke-width="1.5"></path><path d="M939.32 696.39L710.86 694.7" stroke="rgba(73, 88, 103, 1)" stroke-width="1.5"></path><path d="M939.32 696.39L789.01 490.91" stroke="rgba(73, 88, 103, 1)" stroke-width="1.5"></path><path d="M1159.73 -94.37L1159.73 -94.37" stroke="rgba(73, 88, 103, 1)" stroke-width="1.5"></path><path d="M1159.73 -94.37L1264.82 -100.05" stroke="rgba(73, 88, 103, 1)" stroke-width="1.5"></path><path d="M1159.73 -94.37L1108.74 48.86" stroke="rgba(73, 88, 103, 1)" stroke-width="1.5"></path><path d="M1108.74 48.86L1108.74 48.86" stroke="rgba(73, 88, 103, 1)" stroke-width="1.5"></path><path d="M1108.74 48.86L1246.05 83.16" stroke="rgba(73, 88, 103, 1)" stroke-width="1.5"></path><path d="M1108.74 48.86L1125.81 204.91" stroke="rgba(73, 88, 103, 1)" stroke-width="1.5"></path><path d="M1108.74 48.86L981.75 199.83" stroke="rgba(73, 88, 103, 1)" stroke-width="1.5"></path><path d="M1125.81 204.91L1125.81 204.91" stroke="rgba(73, 88, 103, 1)" stroke-width="1.5"></path><path d="M1125.81 204.91L1260.13 236.07" stroke="rgba(73, 88, 103, 1)" stroke-width="1.5"></path><path d="M1125.81 204.91L1153.18 354.38" stroke="rgba(73, 88, 103, 1)" stroke-width="1.5"></path><path d="M1153.18 354.38L1153.18 354.38" stroke="rgba(73, 88, 103, 1)" stroke-width="1.5"></path><path d="M1153.18 354.38L1269.66 381.37" stroke="rgba(73, 88, 103, 1)" stroke-width="1.5"></path><path d="M1153.18 354.38L1117.32 494.95" stroke="rgba(73, 88, 103, 1)" stroke-width="1.5"></path><path d="M1153.18 354.38L1260.13 236.07" stroke="rgba(73, 88, 103, 1)" stroke-width="1.5"></path><path d="M1153.18 354.38L1242.9 519.97" stroke="rgba(73, 88, 103, 1)" stroke-width="1.5"></path><path d="M1117.32 494.95L1117.32 494.95" stroke="rgba(73, 88, 103, 1)" stroke-width="1.5"></path><path d="M1117.32 494.95L1242.9 519.97" stroke="rgba(73, 88, 103, 1)" stroke-width="1.5"></path><path d="M1117.32 494.95L1269.66 381.37" stroke="rgba(73, 88, 103, 1)" stroke-width="1.5"></path><path d="M1117.32 494.95L1147.16 709.18" stroke="rgba(73, 88, 103, 1)" stroke-width="1.5"></path><path d="M1147.16 709.18L1147.16 709.18" stroke="rgba(73, 88, 103, 1)" stroke-width="1.5"></path><path d="M1147.16 709.18L1251.84 698.62" stroke="rgba(73, 88, 103, 1)" stroke-width="1.5"></path><path d="M1147.16 709.18L1242.9 519.97" stroke="rgba(73, 88, 103, 1)" stroke-width="1.5"></path><path d="M1147.16 709.18L961.42 492.42" stroke="rgba(73, 88, 103, 1)" stroke-width="1.5"></path><path d="M1147.16 709.18L811.9 646.29" stroke="rgba(73, 88, 103, 1)" stroke-width="1.5"></path><path d="M1264.82 -100.05L1264.82 -100.05" stroke="rgba(73, 88, 103, 1)" stroke-width="1.5"></path><path d="M1264.82 -100.05L1246.05 83.16" stroke="rgba(73, 88, 103, 1)" stroke-width="1.5"></path><path d="M1264.82 -100.05L1108.74 48.86" stroke="rgba(73, 88, 103, 1)" stroke-width="1.5"></path><path d="M1264.82 -100.05L1012.19 107.1" stroke="rgba(73, 88, 103, 1)" stroke-width="1.5"></path><path d="M1246.05 83.16L1246.05 83.16" stroke="rgba(73, 88, 103, 1)" stroke-width="1.5"></path><path d="M1246.05 83.16L1260.13 236.07" stroke="rgba(73, 88, 103, 1)" stroke-width="1.5"></path><path d="M1246.05 83.16L1125.81 204.91" stroke="rgba(73, 88, 103, 1)" stroke-width="1.5"></path><path d="M1260.13 236.07L1260.13 236.07" stroke="rgba(73, 88, 103, 1)" stroke-width="1.5"></path><path d="M1260.13 236.07L1269.66 381.37" stroke="rgba(73, 88, 103, 1)" stroke-width="1.5"></path><path d="M1269.66 381.37L1269.66 381.37" stroke="rgba(73, 88, 103, 1)" stroke-width="1.5"></path><path d="M1269.66 381.37L1242.9 519.97" stroke="rgba(73, 88, 103, 1)" stroke-width="1.5"></path><path d="M1242.9 519.97L1242.9 519.97" stroke="rgba(73, 88, 103, 1)" stroke-width="1.5"></path><path d="M1242.9 519.97L1251.84 698.62" stroke="rgba(73, 88, 103, 1)" stroke-width="1.5"></path><path d="M1251.84 698.62L1251.84 698.62" stroke="rgba(73, 88, 103, 1)" stroke-width="1.5"></path><path d="M1251.84 698.62L1117.32 494.95" stroke="rgba(73, 88, 103, 1)" stroke-width="1.5"></path><path d="M1251.84 698.62L939.32 696.39" stroke="rgba(73, 88, 103, 1)" stroke-width="1.5"></path><path d="M1251.84 698.62L1269.66 381.37" stroke="rgba(73, 88, 103, 1)" stroke-width="1.5"></path><path d="M1251.84 698.62L961.42 492.42" stroke="rgba(73, 88, 103, 1)" stroke-width="1.5"></path><circle r="5" cx="-88.24" cy="353.13" fill="rgba(73, 88, 103, 1)"></circle><circle r="5" cx="-83.74" cy="538.96" fill="rgba(73, 88, 103, 1)"></circle><circle r="5" cx="-45.44" cy="692.1" fill="rgba(73, 88, 103, 1)"></circle><circle r="5" cx="105.15" cy="352.66" fill="rgba(73, 88, 103, 1)"></circle><circle r="5" cx="100.79" cy="499.9" fill="rgba(73, 88, 103, 1)"></circle><circle r="5" cx="86.23" cy="666.13" fill="rgba(73, 88, 103, 1)"></circle><circle r="5" cx="230.99" cy="411.39" fill="rgba(73, 88, 103, 1)"></circle><circle r="5" cx="213.37" cy="509.86" fill="rgba(73, 88, 103, 1)"></circle><circle r="5" cx="197.79" cy="672.3" fill="rgba(73, 88, 103, 1)"></circle><circle r="5" cx="390.68" cy="536.1" fill="rgba(73, 88, 103, 1)"></circle><circle r="5" cx="396.29" cy="703.35" fill="rgba(73, 88, 103, 1)"></circle><circle r="5" cx="561.86" cy="213.03" fill="rgba(73, 88, 103, 1)"></circle><circle r="5" cx="511.91" cy="356.86" fill="rgba(73, 88, 103, 1)"></circle><circle r="5" cx="540.86" cy="497.42" fill="rgba(73, 88, 103, 1)"></circle><circle r="5" cx="505.86" cy="661.58" fill="rgba(73, 88, 103, 1)"></circle><circle r="5" cx="643.08" cy="377.85" fill="rgba(73, 88, 103, 1)"></circle><circle r="5" cx="654.78" cy="549.57" fill="rgba(73, 88, 103, 1)"></circle><circle r="5" cx="710.86" cy="694.7" fill="rgba(73, 88, 103, 1)"></circle><circle r="5" cx="829.87" cy="-104.3" fill="rgba(73, 88, 103, 1)"></circle><circle r="5" cx="814.3" cy="107.68" fill="rgba(73, 88, 103, 1)"></circle><circle r="5" cx="788.96" cy="242.9" fill="rgba(73, 88, 103, 1)"></circle><circle r="5" cx="861.17" cy="375.84" fill="rgba(73, 88, 103, 1)"></circle><circle r="5" cx="789.01" cy="490.91" fill="rgba(73, 88, 103, 1)"></circle><circle r="5" cx="811.9" cy="646.29" fill="rgba(73, 88, 103, 1)"></circle><circle r="5" cx="1012.19" cy="107.1" fill="rgba(73, 88, 103, 1)"></circle><circle r="5" cx="981.75" cy="199.83" fill="rgba(73, 88, 103, 1)"></circle><circle r="5" cx="1000.7" cy="340.91" fill="rgba(73, 88, 103, 1)"></circle><circle r="5" cx="961.42" cy="492.42" fill="rgba(73, 88, 103, 1)"></circle><circle r="5" cx="939.32" cy="696.39" fill="rgba(73, 88, 103, 1)"></circle><circle r="5" cx="1159.73" cy="-94.37" fill="rgba(73, 88, 103, 1)"></circle><circle r="5" cx="1108.74" cy="48.86" fill="rgba(73, 88, 103, 1)"></circle><circle r="5" cx="1125.81" cy="204.91" fill="rgba(73, 88, 103, 1)"></circle><circle r="5" cx="1153.18" cy="354.38" fill="rgba(73, 88, 103, 1)"></circle><circle r="5" cx="1117.32" cy="494.95" fill="rgba(73, 88, 103, 1)"></circle><circle r="5" cx="1147.16" cy="709.18" fill="rgba(73, 88, 103, 1)"></circle><circle r="5" cx="1264.82" cy="-100.05" fill="rgba(73, 88, 103, 1)"></circle><circle r="5" cx="1246.05" cy="83.16" fill="rgba(73, 88, 103, 1)"></circle><circle r="5" cx="1260.13" cy="236.07" fill="rgba(73, 88, 103, 1)"></circle><circle r="5" cx="1269.66" cy="381.37" fill="rgba(73, 88, 103, 1)"></circle><circle r="5" cx="1242.9" cy="519.97" fill="rgba(73, 88, 103, 1)"></circle><circle r="5" cx="1251.84" cy="698.62" fill="rgba(73, 88, 103, 1)"></circle><path d="M95.15 648.96L95.15 648.96" stroke="hsl(214.5, 27.5%, 61.2%)" stroke-width="1.5"></path><path d="M95.15 648.96L200.96 680.22" stroke="hsl(214.5, 27.5%, 61.2%)" stroke-width="1.5"></path><path d="M95.15 648.96L99.7 521.6" stroke="hsl(214.5, 27.5%, 61.2%)" stroke-width="1.5"></path><path d="M95.15 648.96L246.12 528.67" stroke="hsl(214.5, 27.5%, 61.2%)" stroke-width="1.5"></path><path d="M561.09 524.06L561.09 524.06" stroke="hsl(214.5, 27.5%, 61.2%)" stroke-width="1.5"></path><path d="M561.09 524.06L522.14 393.22" stroke="hsl(214.5, 27.5%, 61.2%)" stroke-width="1.5"></path><path d="M561.09 524.06L519.99 683.53" stroke="hsl(214.5, 27.5%, 61.2%)" stroke-width="1.5"></path><path d="M561.09 524.06L385.62 524.08" stroke="hsl(214.5, 27.5%, 61.2%)" stroke-width="1.5"></path><path d="M979.82 41.24L979.82 41.24" stroke="hsl(214.5, 27.5%, 61.2%)" stroke-width="1.5"></path><path d="M979.82 41.24L967.07 -55.77" stroke="hsl(214.5, 27.5%, 61.2%)" stroke-width="1.5"></path><path d="M979.82 41.24L1103.44 -45.07" stroke="hsl(214.5, 27.5%, 61.2%)" stroke-width="1.5"></path><path d="M979.82 41.24L1001.58 193.48" stroke="hsl(214.5, 27.5%, 61.2%)" stroke-width="1.5"></path><path d="M1103.44 -45.07L1103.44 -45.07" stroke="hsl(214.5, 27.5%, 61.2%)" stroke-width="1.5"></path><path d="M1103.44 -45.07L967.07 -55.77" stroke="hsl(214.5, 27.5%, 61.2%)" stroke-width="1.5"></path><path d="M1103.44 -45.07L1128.02 94.91" stroke="hsl(214.5, 27.5%, 61.2%)" stroke-width="1.5"></path><path d="M-82.76 400.13L-82.76 400.13" stroke="hsl(214.5, 27.5%, 61.2%)" stroke-width="1.5"></path><path d="M-82.76 400.13L-46.82 490.78" stroke="hsl(214.5, 27.5%, 61.2%)" stroke-width="1.5"></path><path d="M-82.76 400.13L99.7 521.6" stroke="hsl(214.5, 27.5%, 61.2%)" stroke-width="1.5"></path><path d="M-82.76 400.13L95.15 648.96" stroke="hsl(214.5, 27.5%, 61.2%)" stroke-width="1.5"></path><path d="M-82.76 400.13L-101.37 710.9" stroke="hsl(214.5, 27.5%, 61.2%)" stroke-width="1.5"></path><path d="M-46.82 490.78L-46.82 490.78" stroke="hsl(214.5, 27.5%, 61.2%)" stroke-width="1.5"></path><path d="M-46.82 490.78L99.7 521.6" stroke="hsl(214.5, 27.5%, 61.2%)" stroke-width="1.5"></path><path d="M-46.82 490.78L95.15 648.96" stroke="hsl(214.5, 27.5%, 61.2%)" stroke-width="1.5"></path><path d="M-101.37 710.9L-101.37 710.9" stroke="hsl(214.5, 27.5%, 61.2%)" stroke-width="1.5"></path><path d="M-101.37 710.9L95.15 648.96" stroke="hsl(214.5, 27.5%, 61.2%)" stroke-width="1.5"></path><path d="M-101.37 710.9L-46.82 490.78" stroke="hsl(214.5, 27.5%, 61.2%)" stroke-width="1.5"></path><path d="M99.7 521.6L99.7 521.6" stroke="hsl(214.5, 27.5%, 61.2%)" stroke-width="1.5"></path><path d="M99.7 521.6L246.12 528.67" stroke="hsl(214.5, 27.5%, 61.2%)" stroke-width="1.5"></path><path d="M99.7 521.6L200.96 680.22" stroke="hsl(214.5, 27.5%, 61.2%)" stroke-width="1.5"></path><path d="M246.12 528.67L246.12 528.67" stroke="hsl(214.5, 27.5%, 61.2%)" stroke-width="1.5"></path><path d="M246.12 528.67L385.62 524.08" stroke="hsl(214.5, 27.5%, 61.2%)" stroke-width="1.5"></path><path d="M200.96 680.22L200.96 680.22" stroke="hsl(214.5, 27.5%, 61.2%)" stroke-width="1.5"></path><path d="M200.96 680.22L246.12 528.67" stroke="hsl(214.5, 27.5%, 61.2%)" stroke-width="1.5"></path><path d="M200.96 680.22L381.22 661.71" stroke="hsl(214.5, 27.5%, 61.2%)" stroke-width="1.5"></path><path d="M200.96 680.22L385.62 524.08" stroke="hsl(214.5, 27.5%, 61.2%)" stroke-width="1.5"></path><path d="M200.96 680.22L-101.37 710.9" stroke="hsl(214.5, 27.5%, 61.2%)" stroke-width="1.5"></path><path d="M385.62 524.08L385.62 524.08" stroke="hsl(214.5, 27.5%, 61.2%)" stroke-width="1.5"></path><path d="M385.62 524.08L381.22 661.71" stroke="hsl(214.5, 27.5%, 61.2%)" stroke-width="1.5"></path><path d="M385.62 524.08L522.14 393.22" stroke="hsl(214.5, 27.5%, 61.2%)" stroke-width="1.5"></path><path d="M385.62 524.08L519.99 683.53" stroke="hsl(214.5, 27.5%, 61.2%)" stroke-width="1.5"></path><path d="M381.22 661.71L381.22 661.71" stroke="hsl(214.5, 27.5%, 61.2%)" stroke-width="1.5"></path><path d="M381.22 661.71L519.99 683.53" stroke="hsl(214.5, 27.5%, 61.2%)" stroke-width="1.5"></path><path d="M381.22 661.71L246.12 528.67" stroke="hsl(214.5, 27.5%, 61.2%)" stroke-width="1.5"></path><path d="M522.14 393.22L522.14 393.22" stroke="hsl(214.5, 27.5%, 61.2%)" stroke-width="1.5"></path><path d="M522.14 393.22L638.29 339.98" stroke="hsl(214.5, 27.5%, 61.2%)" stroke-width="1.5"></path><path d="M519.99 683.53L519.99 683.53" stroke="hsl(214.5, 27.5%, 61.2%)" stroke-width="1.5"></path><path d="M519.99 683.53L681.75 695.74" stroke="hsl(214.5, 27.5%, 61.2%)" stroke-width="1.5"></path><path d="M519.99 683.53L522.14 393.22" stroke="hsl(214.5, 27.5%, 61.2%)" stroke-width="1.5"></path><path d="M638.29 339.98L638.29 339.98" stroke="hsl(214.5, 27.5%, 61.2%)" stroke-width="1.5"></path><path d="M638.29 339.98L810.53 408.3" stroke="hsl(214.5, 27.5%, 61.2%)" stroke-width="1.5"></path><path d="M638.29 339.98L561.09 524.06" stroke="hsl(214.5, 27.5%, 61.2%)" stroke-width="1.5"></path><path d="M638.29 339.98L838.99 535.25" stroke="hsl(214.5, 27.5%, 61.2%)" stroke-width="1.5"></path><path d="M638.29 339.98L385.62 524.08" stroke="hsl(214.5, 27.5%, 61.2%)" stroke-width="1.5"></path><path d="M681.75 695.74L681.75 695.74" stroke="hsl(214.5, 27.5%, 61.2%)" stroke-width="1.5"></path><path d="M681.75 695.74L848.72 695.07" stroke="hsl(214.5, 27.5%, 61.2%)" stroke-width="1.5"></path><path d="M681.75 695.74L561.09 524.06" stroke="hsl(214.5, 27.5%, 61.2%)" stroke-width="1.5"></path><path d="M681.75 695.74L838.99 535.25" stroke="hsl(214.5, 27.5%, 61.2%)" stroke-width="1.5"></path><path d="M810.53 408.3L810.53 408.3" stroke="hsl(214.5, 27.5%, 61.2%)" stroke-width="1.5"></path><path d="M810.53 408.3L838.99 535.25" stroke="hsl(214.5, 27.5%, 61.2%)" stroke-width="1.5"></path><path d="M838.99 535.25L838.99 535.25" stroke="hsl(214.5, 27.5%, 61.2%)" stroke-width="1.5"></path><path d="M838.99 535.25L949.27 517.51" stroke="hsl(214.5, 27.5%, 61.2%)" stroke-width="1.5"></path><path d="M838.99 535.25L848.72 695.07" stroke="hsl(214.5, 27.5%, 61.2%)" stroke-width="1.5"></path><path d="M838.99 535.25L986.91 666.59" stroke="hsl(214.5, 27.5%, 61.2%)" stroke-width="1.5"></path><path d="M848.72 695.07L848.72 695.07" stroke="hsl(214.5, 27.5%, 61.2%)" stroke-width="1.5"></path><path d="M848.72 695.07L986.91 666.59" stroke="hsl(214.5, 27.5%, 61.2%)" stroke-width="1.5"></path><path d="M848.72 695.07L949.27 517.51" stroke="hsl(214.5, 27.5%, 61.2%)" stroke-width="1.5"></path><path d="M967.07 -55.77L967.07 -55.77" stroke="hsl(214.5, 27.5%, 61.2%)" stroke-width="1.5"></path><path d="M967.07 -55.77L1128.02 94.91" stroke="hsl(214.5, 27.5%, 61.2%)" stroke-width="1.5"></path><path d="M967.07 -55.77L1001.58 193.48" stroke="hsl(214.5, 27.5%, 61.2%)" stroke-width="1.5"></path><path d="M1001.58 193.48L1001.58 193.48" stroke="hsl(214.5, 27.5%, 61.2%)" stroke-width="1.5"></path><path d="M1001.58 193.48L1135.56 251.71" stroke="hsl(214.5, 27.5%, 61.2%)" stroke-width="1.5"></path><path d="M973.98 384.68L973.98 384.68" stroke="hsl(214.5, 27.5%, 61.2%)" stroke-width="1.5"></path><path d="M973.98 384.68L1104.02 395.47" stroke="hsl(214.5, 27.5%, 61.2%)" stroke-width="1.5"></path><path d="M973.98 384.68L949.27 517.51" stroke="hsl(214.5, 27.5%, 61.2%)" stroke-width="1.5"></path><path d="M973.98 384.68L810.53 408.3" stroke="hsl(214.5, 27.5%, 61.2%)" stroke-width="1.5"></path><path d="M973.98 384.68L1001.58 193.48" stroke="hsl(214.5, 27.5%, 61.2%)" stroke-width="1.5"></path><path d="M973.98 384.68L1137.04 501.36" stroke="hsl(214.5, 27.5%, 61.2%)" stroke-width="1.5"></path><path d="M973.98 384.68L838.99 535.25" stroke="hsl(214.5, 27.5%, 61.2%)" stroke-width="1.5"></path><path d="M949.27 517.51L949.27 517.51" stroke="hsl(214.5, 27.5%, 61.2%)" stroke-width="1.5"></path><path d="M949.27 517.51L986.91 666.59" stroke="hsl(214.5, 27.5%, 61.2%)" stroke-width="1.5"></path><path d="M986.91 666.59L986.91 666.59" stroke="hsl(214.5, 27.5%, 61.2%)" stroke-width="1.5"></path><path d="M986.91 666.59L1138.68 642.97" stroke="hsl(214.5, 27.5%, 61.2%)" stroke-width="1.5"></path><path d="M1128.02 94.91L1128.02 94.91" stroke="hsl(214.5, 27.5%, 61.2%)" stroke-width="1.5"></path><path d="M1128.02 94.91L1135.56 251.71" stroke="hsl(214.5, 27.5%, 61.2%)" stroke-width="1.5"></path><path d="M1128.02 94.91L979.82 41.24" stroke="hsl(214.5, 27.5%, 61.2%)" stroke-width="1.5"></path><path d="M1128.02 94.91L1001.58 193.48" stroke="hsl(214.5, 27.5%, 61.2%)" stroke-width="1.5"></path><path d="M1128.02 94.91L1304.59 85.87" stroke="hsl(214.5, 27.5%, 61.2%)" stroke-width="1.5"></path><path d="M1128.02 94.91L1249.04 251.64" stroke="hsl(214.5, 27.5%, 61.2%)" stroke-width="1.5"></path><path d="M1135.56 251.71L1135.56 251.71" stroke="hsl(214.5, 27.5%, 61.2%)" stroke-width="1.5"></path><path d="M1135.56 251.71L1249.04 251.64" stroke="hsl(214.5, 27.5%, 61.2%)" stroke-width="1.5"></path><path d="M1135.56 251.71L1104.02 395.47" stroke="hsl(214.5, 27.5%, 61.2%)" stroke-width="1.5"></path><path d="M1135.56 251.71L1272.71 376.86" stroke="hsl(214.5, 27.5%, 61.2%)" stroke-width="1.5"></path><path d="M1104.02 395.47L1104.02 395.47" stroke="hsl(214.5, 27.5%, 61.2%)" stroke-width="1.5"></path><path d="M1104.02 395.47L1137.04 501.36" stroke="hsl(214.5, 27.5%, 61.2%)" stroke-width="1.5"></path><path d="M1104.02 395.47L1272.71 376.86" stroke="hsl(214.5, 27.5%, 61.2%)" stroke-width="1.5"></path><path d="M1137.04 501.36L1137.04 501.36" stroke="hsl(214.5, 27.5%, 61.2%)" stroke-width="1.5"></path><path d="M1137.04 501.36L1138.68 642.97" stroke="hsl(214.5, 27.5%, 61.2%)" stroke-width="1.5"></path><path d="M1138.68 642.97L1138.68 642.97" stroke="hsl(214.5, 27.5%, 61.2%)" stroke-width="1.5"></path><path d="M1138.68 642.97L1256.38 691.68" stroke="hsl(214.5, 27.5%, 61.2%)" stroke-width="1.5"></path><path d="M1277.62 -81.35L1277.62 -81.35" stroke="hsl(214.5, 27.5%, 61.2%)" stroke-width="1.5"></path><path d="M1277.62 -81.35L1304.59 85.87" stroke="hsl(214.5, 27.5%, 61.2%)" stroke-width="1.5"></path><path d="M1277.62 -81.35L1103.44 -45.07" stroke="hsl(214.5, 27.5%, 61.2%)" stroke-width="1.5"></path><path d="M1304.59 85.87L1304.59 85.87" stroke="hsl(214.5, 27.5%, 61.2%)" stroke-width="1.5"></path><path d="M1304.59 85.87L1249.04 251.64" stroke="hsl(214.5, 27.5%, 61.2%)" stroke-width="1.5"></path><path d="M1249.04 251.64L1249.04 251.64" stroke="hsl(214.5, 27.5%, 61.2%)" stroke-width="1.5"></path><path d="M1249.04 251.64L1272.71 376.86" stroke="hsl(214.5, 27.5%, 61.2%)" stroke-width="1.5"></path><path d="M1249.04 251.64L1104.02 395.47" stroke="hsl(214.5, 27.5%, 61.2%)" stroke-width="1.5"></path><path d="M1272.71 376.86L1272.71 376.86" stroke="hsl(214.5, 27.5%, 61.2%)" stroke-width="1.5"></path><path d="M1307.3 558.24L1307.3 558.24" stroke="hsl(214.5, 27.5%, 61.2%)" stroke-width="1.5"></path><path d="M1307.3 558.24L1256.38 691.68" stroke="hsl(214.5, 27.5%, 61.2%)" stroke-width="1.5"></path><path d="M1307.3 558.24L1137.04 501.36" stroke="hsl(214.5, 27.5%, 61.2%)" stroke-width="1.5"></path><path d="M1307.3 558.24L1272.71 376.86" stroke="hsl(214.5, 27.5%, 61.2%)" stroke-width="1.5"></path><path d="M1307.3 558.24L1138.68 642.97" stroke="hsl(214.5, 27.5%, 61.2%)" stroke-width="1.5"></path><path d="M1307.3 558.24L1104.02 395.47" stroke="hsl(214.5, 27.5%, 61.2%)" stroke-width="1.5"></path><path d="M1256.38 691.68L1256.38 691.68" stroke="hsl(214.5, 27.5%, 61.2%)" stroke-width="1.5"></path><path d="M1256.38 691.68L1137.04 501.36" stroke="hsl(214.5, 27.5%, 61.2%)" stroke-width="1.5"></path><path d="M1256.38 691.68L986.91 666.59" stroke="hsl(214.5, 27.5%, 61.2%)" stroke-width="1.5"></path><path d="M1256.38 691.68L1272.71 376.86" stroke="hsl(214.5, 27.5%, 61.2%)" stroke-width="1.5"></path><path d="M1256.38 691.68L1104.02 395.47" stroke="hsl(214.5, 27.5%, 61.2%)" stroke-width="1.5"></path><circle r="25" cx="95.15" cy="648.96" fill="url(#SvgjsRadialGradient2033)"></circle><circle r="25" cx="561.09" cy="524.06" fill="url(#SvgjsRadialGradient2033)"></circle><circle r="25" cx="979.82" cy="41.24" fill="url(#SvgjsRadialGradient2033)"></circle><circle r="25" cx="1103.44" cy="-45.07" fill="url(#SvgjsRadialGradient2033)"></circle><circle r="5" cx="-82.76" cy="400.13" fill="#abb9cc"></circle><circle r="5" cx="-46.82" cy="490.78" fill="#abb9cc"></circle><circle r="5" cx="-101.37" cy="710.9" fill="#abb9cc"></circle><circle r="5" cx="99.7" cy="521.6" fill="#abb9cc"></circle><circle r="5" cx="246.12" cy="528.67" fill="#abb9cc"></circle><circle r="5" cx="200.96" cy="680.22" fill="#abb9cc"></circle><circle r="5" cx="385.62" cy="524.08" fill="#abb9cc"></circle><circle r="5" cx="381.22" cy="661.71" fill="#abb9cc"></circle><circle r="5" cx="522.14" cy="393.22" fill="#abb9cc"></circle><circle r="5" cx="519.99" cy="683.53" fill="#abb9cc"></circle><circle r="5" cx="638.29" cy="339.98" fill="#abb9cc"></circle><circle r="5" cx="681.75" cy="695.74" fill="#abb9cc"></circle><circle r="5" cx="810.53" cy="408.3" fill="#abb9cc"></circle><circle r="5" cx="838.99" cy="535.25" fill="#abb9cc"></circle><circle r="5" cx="848.72" cy="695.07" fill="#abb9cc"></circle><circle r="5" cx="967.07" cy="-55.77" fill="#abb9cc"></circle><circle r="5" cx="1001.58" cy="193.48" fill="#abb9cc"></circle><circle r="5" cx="973.98" cy="384.68" fill="#abb9cc"></circle><circle r="5" cx="949.27" cy="517.51" fill="#abb9cc"></circle><circle r="5" cx="986.91" cy="666.59" fill="#abb9cc"></circle><circle r="5" cx="1128.02" cy="94.91" fill="#abb9cc"></circle><circle r="5" cx="1135.56" cy="251.71" fill="#abb9cc"></circle><circle r="5" cx="1104.02" cy="395.47" fill="#abb9cc"></circle><circle r="5" cx="1137.04" cy="501.36" fill="#abb9cc"></circle><circle r="5" cx="1138.68" cy="642.97" fill="#abb9cc"></circle><circle r="5" cx="1277.62" cy="-81.35" fill="#abb9cc"></circle><circle r="5" cx="1304.59" cy="85.87" fill="#abb9cc"></circle><circle r="5" cx="1249.04" cy="251.64" fill="#abb9cc"></circle><circle r="5" cx="1272.71" cy="376.86" fill="#abb9cc"></circle><circle r="5" cx="1307.3" cy="558.24" fill="#abb9cc"></circle><circle r="5" cx="1256.38" cy="691.68" fill="#abb9cc"></circle></g><defs><mask id="SvgjsMask2031"><rect width="1200" height="500" fill="#ffffff"></rect></mask><linearGradient x1="0%" y1="50%" x2="100%" y2="50%" gradientUnits="userSpaceOnUse" id="SvgjsLinearGradient2032"><stop stop-color="rgba(14, 42, 71, 1)" offset="0"></stop><stop stop-color="rgba(87, 115, 153, 1)" offset="1"></stop></linearGradient><radialGradient id="SvgjsRadialGradient2033"><stop stop-color="#ffffff" offset="0.1"></stop><stop stop-color="rgba(87, 115, 153, 1)" offset="0.2"></stop><stop stop-color="rgba(87, 115, 153, 0)" offset="1"></stop></radialGradient></defs></svg>